<svg id="Layer_1" data-name="Layer 1" xmlns="http://www.w3.org/2000/svg" viewBox="0 0 366 366"><defs><style>.cls-1{fill:#7e8484;}</style></defs><path class="cls-1" d="M189.16,212.49l-.65-4.59a15.07,15.07,0,0,1-11.34,4.91,14.92,14.92,0,0,1-8.17-2.33,15.63,15.63,0,0,1-5.75-6.88,26.29,26.29,0,0,1-2.09-11.07,23.54,23.54,0,0,1,2.53-11.3,18.79,18.79,0,0,1,6.6-7.24,15.93,15.93,0,0,1,8.57-2.54,12.93,12.93,0,0,1,5.47,1.09,13.57,13.57,0,0,1,4.26,3.18V161l-5.63-.81v-3.38l17-3.62,1.28.81-.32,11.26V207l3.94.8v3.78Zm-14.41-20.12q0,6.6,2.34,10a7,7,0,0,0,6,3.42,7.7,7.7,0,0,0,5-1.85V180a7.61,7.61,0,0,0-4.75-1.69,7.31,7.31,0,0,0-6.15,3.46Q174.75,185.22,174.75,192.37Z"/><path class="cls-1" d="M183,103a80,80,0,1,0,80,80A80,80,0,0,0,183,103Zm0,126a46,46,0,1,1,46-46A46,46,0,0,1,183,229Z"/><path class="cls-1" d="M183,45A138,138,0,1,0,321,183,138,138,0,0,0,183,45Zm0,229.25A91.25,91.25,0,1,1,274.25,183,91.24,91.24,0,0,1,183,274.25Z"/><path class="cls-1" d="M183,0A183,183,0,1,0,366,183,183,183,0,0,0,183,0Zm0,332A149,149,0,1,1,332,183,149,149,0,0,1,183,332Z"/></svg>